#!OML:ASF H:\LiuWeirdWalks\Patient Classification 1\Patient 1\Session 1\male.ASF
:FULLY-SPECIFIED
:DEGREES
462
root 1.88868 17.4774 2.83927 -0.692839 -6.39378 -1.69224
lowerback 4.41487 1.59337 1.01623
upperback -2.53764 2.31095 2.4095
thorax -5.16652 1.15496 1.7238
lowerneck -17.8312 1.62342 4.12311
upperneck 17.5015 1.42865 -1.50409
head 8.4304 0.79486 -1.00706
rclavicle -3.97569e-015 -3.97569e-015
rhumerus -31.1077 -19.2432 -74.319
rradius 20.8361
rwrist -0.784031
rhand -18.2555 -4.65409
rfingers 7.12502
rthumb 8.02373 -34.4818
lclavicle -3.97569e-015 -3.97569e-015
lhumerus -39.5586 10.8225 77.1083
lradius 29.547
lwrist 2.55726
lhand -13.1879 -1.07898
lfingers 7.12502
lthumb 12.912 28.5016
rfemur 15.5316 0.924257 19.3311
rtibia 34.8822
rfoot 1.19026 -21.3321
rtoes -15.3479
lfemur -28.9722 2.91336 -16.6286
ltibia 31.5422
lfoot -0.260538 7.11267
ltoes -13.8939
463
root 1.93111 17.5114 3.02783 -0.93583 -6.63561 -1.51071
lowerback 4.54003 1.58009 0.946335
upperback -2.49028 2.28814 2.36383
thorax -5.18842 1.14494 1.71473
lowerneck -18.0657 1.70777 4.13513
upperneck 17.6588 1.53522 -1.52269
head 8.5287 0.844225 -1.00128
rclavicle 1.13307e-014 -3.97569e-015
rhumerus -31.6518 -19.0968 -74.193
rradius 20.9049
rwrist -0.778342
rhand -17.9258 -4.4796
rfingers 7.12502
rthumb 8.34195 -34.2949
lclavicle 1.13307e-014 -3.97569e-015
lhumerus -39.3103 11.8005 76.7762
lradius 28.16
lwrist 1.01715
lhand -12.6407 -1.13661
lfingers 7.12502
lthumb 13.4395 28.4098
rfemur 14.4215 0.878314 18.8003
rtibia 37.5539
rfoot 3.54939 -20.9152
rtoes -12.8555
lfemur -28.1038 2.75441 -16.9359
ltibia 31.8115
lfoot -0.655241 7.28847
ltoes -12.8645
464
root 1.97394 17.5479 3.21323 -1.18155 -6.94348 -1.27064
lowerback 4.65031 1.5864 0.824311
upperback -2.40908 2.28587 2.30544
thorax -5.16841 1.14667 1.72058
lowerneck -18.3128 1.78747 4.12749
upperneck 17.7536 1.64134 -1.54732
head 8.60806 0.890678 -0.993937
rclavicle 7.7526e-015 -1.19271e-014
rhumerus -32.1262 -18.8848 -74.1181
rradius 21.0126
rwrist -0.790922
rhand -17.5019 -4.29433
rfingers 7.12502
rthumb 8.75103 -34.0929
lclavicle 7.7526e-015 -1.19271e-014
lhumerus -39.0476 12.8432 76.4239
lradius 26.8762
lwrist -0.444181
lhand -12.144 -1.05024
lfingers 7.12502
lthumb 13.9183 28.4639
rfemur 13.2338 0.913367 18.2304
rtibia 40.2233
rfoot 5.87866 -20.4118
rtoes -9.70695
lfemur -27.1464 2.55864 -17.3034
ltibia 31.8977
lfoot -0.948454 7.6229
ltoes -11.8863
465
root 2.01667 17.5871 3.39536 -1.41767 -7.30712 -0.932046
lowerback 4.74597 1.61052 0.602141
upperback -2.32083 2.29879 2.22344
thorax -5.13606 1.15886 1.75713
lowerneck -18.5264 1.882 4.16921
upperneck 17.802 1.76857 -1.63268
head 8.66743 0.943543 -1.01246
rclavicle -1.31695e-014 -1.74931e-014
rhumerus -32.5521 -18.6071 -74.0843
rradius 21.137
rwrist -0.812621
rhand -17.0082 -4.10886
rfingers 7.12502
rthumb 9.22744 -33.887
lclavicle -1.31695e-014 -1.74931e-014
lhumerus -38.7929 13.8662 76.0856
lradius 25.7049
lwrist -1.69687
lhand -11.7352 -0.824134
lfingers 7.12502
lthumb 14.3121 28.6626
rfemur 11.958 0.995644 17.5697
rtibia 42.8854
rfoot 7.94903 -19.8344
rtoes -6.41867
lfemur -26.1273 2.36247 -17.7848
ltibia 31.8018
lfoot -1.13972 8.05038
ltoes -10.9778
466
root 2.05853 17.628 3.57493 -1.63181 -7.71925 -0.504653
lowerback 4.80321 1.64884 0.281637
upperback -2.23011 2.32216 2.12302
thorax -5.08287 1.17906 1.82985
lowerneck -18.7111 1.98388 4.21853
upperneck 17.8275 1.90716 -1.72812
head 8.7146 1.00097 -1.03413
rclavicle 3.66758e-014 3.4191e-014
rhumerus -32.9183 -18.2715 -74.0902
rradius 21.2625
rwrist -0.839588
rhand -16.4768 -3.94965
rfingers 7.12502
rthumb 9.74014 -33.7044
lclavicle 3.66758e-014 3.4191e-014
lhumerus -38.536 14.8531 75.7745
lradius 24.6219
lwrist -2.75014
lhand -11.4119 -0.506169
lfingers 7.12502
lthumb 14.6236 28.9582
rfemur 10.6024 1.10861 16.8302
rtibia 45.527
rfoot 9.55912 -19.2549
rtoes -3.34732
lfemur -25.0727 2.21259 -18.3773
ltibia 31.5481
lfoot -1.25165 8.52237
ltoes -10.2002
467
root 2.09842 17.6692 3.75113 -1.8057 -8.14463 -0.00753103
lowerback 4.80862 1.69223 -0.123257
upperback -2.14749 2.34527 2.00418
thorax -5.01163 1.20133 1.93226
lowerneck -18.8919 2.0874 4.25777
upperneck 17.8703 2.04596 -1.7997
head 8.76695 1.06038 -1.04586
rclavicle 2.13694e-015 -2.06736e-014
rhumerus -33.2187 -17.9447 -74.114
rradius 21.3484
rwrist -0.813014
rhand -15.9081 -3.76301
rfingers 7.12502
rthumb 10.2889 -33.4913
lclavicle 2.13694e-015 -2.06736e-014
lhumerus -38.2679 15.7288 75.5147
lradius 23.6271
lwrist -3.57664
lhand -11.1517 -0.0950619
lfingers 7.12502
lthumb 14.8743 29.351
rfemur 9.16414 1.21386 16.0372
rtibia 48.1308
rfoot 10.5736 -18.7858
rtoes -1.01744
lfemur -24.0273 2.11412 -19.0594
ltibia 31.1694
lfoot -1.31834 9.01704
ltoes -9.49015
468
root 2.13522 17.71 3.92352 -1.93653 -8.55617 0.513742
lowerback 4.77814 1.7275 -0.580306
upperback -2.0835 2.35445 1.88122
thorax -4.94133 1.21803 2.06188
lowerneck -19.0377 2.19754 4.30389
upperneck 17.9041 2.19066 -1.85855
head 8.81034 1.12444 -1.05361
rclavicle 3.11595e-014 1.59028e-014
rhumerus -33.4546 -17.6458 -74.1473
rradius 21.3792
rwrist -0.709433
rhand -15.336 -3.59741
rfingers 7.12502
rthumb 10.8406 -33.2976
lclavicle 3.11595e-014 1.59028e-014
lhumerus -38.0025 16.4877 75.3021
lradius 22.7077
lwrist -4.23011
lhand -10.9605 0.327343
lfingers 7.12502
lthumb 15.0586 29.7597
rfemur 7.66576 1.29525 15.2515
rtibia 50.667
rfoot 10.93 -18.5207
rtoes 0.41675
lfemur -23.0226 2.08268 -19.778
ltibia 30.7141
lfoot -1.38133 9.48144
ltoes -8.82717
469
root 2.16834 17.7492 4.09198 -2.03115 -8.9165 1.02965
lowerback 4.71399 1.7432 -1.05655
upperback -2.0316 2.33723 1.75864
thorax -4.86442 1.22187 2.20607
lowerneck -19.1269 2.30935 4.36064
upperneck 17.9117 2.33606 -1.91322
head 8.83504 1.19009 -1.06175
rclavicle 2.26118e-014 2.94201e-014
rhumerus -33.6271 -17.328 -74.2182
rradius 21.3829
rwrist -0.59459
rhand -14.7943 -3.47595
rfingers 7.12502
rthumb 11.3632 -33.1481
lclavicle 2.26118e-014 2.94201e-014
lhumerus -37.728 17.0985 75.1566
lradius 21.8803
lwrist -4.74823
lhand -10.8059 0.76171
lfingers 7.12502
lthumb 15.2075 30.1828
rfemur 6.14206 1.32711 14.5106
rtibia 53.1028
rfoot 10.6742 -18.4741
rtoes 1.0873
lfemur -22.0698 2.1217 -20.5001
ltibia 30.2192
lfoot -1.47888 9.86162
ltoes -8.21305
470
root 2.19695 17.7866 4.2555 -2.09018 -9.20456 1.47301
lowerback 4.64516 1.72918 -1.49652
upperback -1.99626 2.28489 1.65594
thorax -4.79963 1.20729 2.35375
lowerneck -19.1592 2.42183 4.45425
upperneck 17.8447 2.48158 -2.00457
head 8.82521 1.2542 -1.08866
rclavicle -1.23246e-014 3.97569e-015
rhumerus -33.7393 -17.0586 -74.2993
rradius 21.3343
rwrist -0.387702
rhand -14.2967 -3.35437
rfingers 7.12502
rthumb 11.843 -32.9995
lclavicle -1.23246e-014 3.97569e-015
lhumerus -37.4501 17.5371 75.0834
lradius 21.1408
lwrist -5.16581
lhand -10.7018 1.12486
lfingers 7.12502
lthumb 15.3077 30.5383
rfemur 4.61482 1.29758 13.9004
rtibia 55.402
rfoot 9.95256 -18.623
rtoes 1.16338
lfemur -21.1809 2.22949 -21.1428
ltibia 29.722
lfoot -1.61579 10.1133
ltoes -7.73752
471
root 2.22141 17.8224 4.41449 -2.12511 -9.39706 1.84568
lowerback 4.57649 1.6759 -1.90382
upperback -1.96598 2.18418 1.57463
thorax -4.73648 1.16774 2.5096
lowerneck -19.1522 2.54901 4.5944
upperneck 17.7462 2.6441 -2.13629
head 8.79983 1.32517 -1.13495
rclavicle 7.70291e-015 2.3059e-014
rhumerus -33.7849 -16.7912 -74.417
rradius 21.2648
rwrist -0.169864
rhand -13.8717 -3.29183
rfingers 7.12502
rthumb 12.2528 -32.9129
lclavicle 7.70291e-015 2.3059e-014
lhumerus -37.1568 17.8023 75.097
lradius 20.505
lwrist -5.50404
lhand -10.6218 1.38922
lfingers 7.12502
lthumb 15.3848 30.7968
rfemur 3.10584 1.18691 13.4128
rtibia 57.5383
rfoot 8.94445 -18.8413
rtoes 1.06222
lfemur -20.3476 2.38552 -21.7039
ltibia 29.241
lfoot -1.79139 10.221
ltoes -7.4057
472
root 2.24209 17.8567 4.56907 -2.13763 -9.49028 2.08562
lowerback 4.52554 1.58398 -2.21151
upperback -1.9334 2.04041 1.53206
thorax -4.6749 1.10408 2.65302
lowerneck -19.1401 2.67908 4.76257
upperneck 17.5856 2.80841 -2.29904
head 8.75375 1.39525 -1.19612
rclavicle -8.69683e-015 -3.97569e-015
rhumerus -33.7725 -16.5313 -74.5637
rradius 21.1907
rwrist 0.0617893
rhand -13.5506 -3.27371
rfingers 7.12502
rthumb 12.5624 -32.876
lclavicle -8.69683e-015 -3.97569e-015
lhumerus -36.8402 17.888 75.2144
lradius 19.9914
lwrist -5.77999
lhand -10.5331 1.59346
lfingers 7.12502
lthumb 15.4702 30.9945
rfemur 1.63403 0.997622 13.1192
rtibia 59.4908
rfoot 7.86224 -19.0139
rtoes 1.16234
lfemur -19.5574 2.56301 -22.1098
ltibia 28.787
lfoot -2.00129 10.1907
ltoes -7.26179
473
root 2.25973 17.8896 4.71961 -2.13616 -9.48367 2.22391
lowerback 4.50484 1.45801 -2.44955
upperback -1.90798 1.85693 1.52369
thorax -4.63277 1.01925 2.79538
lowerneck -19.1628 2.80296 4.90014
upperneck 17.5063 2.96471 -2.42773
head 8.74091 1.46339 -1.24146
rclavicle -1.98785e-016 1.51076e-014
rhumerus -33.7303 -16.3419 -74.6871
rradius 21.0912
rwrist 0.362071
rhand -13.3147 -3.24213
rfingers 7.12502
rthumb 12.7898 -32.8304
lclavicle -1.98785e-016 1.51076e-014
lhumerus -36.5228 17.7553 75.4601
lradius 19.6264
lwrist -5.9024
lhand -10.4311 1.77199
lfingers 7.12502
lthumb 15.5684 31.1654
rfemur 0.198297 0.727435 12.9771
rtibia 61.255
rfoot 6.85263 -19.0744
rtoes 1.384
lfemur -18.8005 2.75185 -22.3935
ltibia 28.358
lfoot -2.23812 10.0182
ltoes -7.29006
474
root 2.27556 17.9209 4.86691 -2.13229 -9.39507 2.30013
lowerback 4.51858 1.30781 -2.64335
upperback -1.88906 1.64428 1.53781
thorax -4.61274 0.919207 2.93794
lowerneck -19.188 2.92428 5.02847
upperneck 17.4632 3.11744 -2.54274
head 8.74081 1.53087 -1.28105
rclavicle -5.96354e-015 7.95139e-015
rhumerus -33.6919 -16.1287 -74.8204
rradius 21.038
rwrist 0.619361
rhand -13.1768 -3.23778
rfingers 7.12502
rthumb 12.9228 -32.8176
lclavicle -5.96354e-015 7.95139e-015
lhumerus -36.204 17.4472 75.8162
lradius 19.4016
lwrist -5.90173
lhand -10.3278 1.88671
lfingers 7.12502
lthumb 15.6679 31.2723
rfemur -1.19584 0.394443 12.9323
rtibia 62.8332
rfoot 5.97421 -19.0102
rtoes 1.61676
lfemur -18.0644 2.92964 -22.5994
ltibia 27.952
lfoot -2.49035 9.74669
ltoes -7.46877
475
root 2.29013 17.9503 5.01118 -2.12852 -9.23494 2.32957
lowerback 4.56688 1.14255 -2.79898
upperback -1.87724 1.41372 1.56686
thorax -4.6162 0.809759 3.07555
lowerneck -19.2446 3.02365 5.1036
upperneck 17.5164 3.24247 -2.59914
head 8.77649 1.58827 -1.29536
rclavicle -3.67752e-015 7.95139e-015
rhumerus -33.6648 -15.9511 -74.9339
rradius 21.0167
rwrist 0.86321
rhand -13.111 -3.22077
rfingers 7.12502
rthumb 12.9862 -32.7966
lclavicle -3.67752e-015 7.95139e-015
lhumerus -35.8923 16.9526 76.275
lradius 19.3192
lwrist -5.78676
lhand -10.205 1.94888
lfingers 7.12502
lthumb 15.7862 31.3252
rfemur -2.55164 0.0101171 12.9647
rtibia 64.2368
rfoot 5.23486 -18.8477
rtoes 1.76138
lfemur -17.344 3.08462 -22.7462
ltibia 27.5615
lfoot -2.76138 9.41676
ltoes -7.67907
